<svg id="Layer_1" data-name="Layer 1" xmlns="http://www.w3.org/2000/svg" viewBox="0 0 49.68 49.68"><defs><style>.cls-1{fill:#231f20;}.cls-2{fill:#fff;}</style></defs><title>iron</title><path class="cls-1" d="M49.68,24.84A24.84,24.84,0,1,1,24.84,0,24.84,24.84,0,0,1,49.68,24.84"/><path class="cls-2" d="M33.1,17.12c-.23-5.27-4.33-10-5.31-10-3.16,1.56-7.06,2.94-8.51,6.13a5.19,5.19,0,0,0-.24.59,2.38,2.38,0,0,0-1.11-.77c-2.2-.66-4.19,1.18-3.15,2.79a1.47,1.47,0,0,1-.55,2V18a1.47,1.47,0,0,1,.55,2c-1,1.61.95,3.45,3.15,2.79a2.24,2.24,0,0,0,.67-.35,11.54,11.54,0,0,0,.67,2.15c.8.65,3,3.23,4,3.8,2.59-.25,8.34-3.73,9.5-5.72A26.11,26.11,0,0,0,33.1,17.12ZM18.35,21c-1,.3-1.71-.09-1.54-.78a1.93,1.93,0,0,0-.12-1.64,1.21,1.21,0,0,0-.94-.65,1.23,1.23,0,0,0,.94-.65,1.93,1.93,0,0,0,.12-1.64c-.19-.77.69-1.16,1.87-.66A16.84,16.84,0,0,0,18.35,21Zm3.21-8.62A13.72,13.72,0,0,0,19.5,16a8.73,8.73,0,0,1,.89-2.74c1.32-2.32,3.77-3.24,5-4.09C24.8,10.11,22.85,11,21.56,12.38Zm10.2,10a18.64,18.64,0,0,1-7.33,4.37,19,19,0,0,1-.6-4.77,21.64,21.64,0,0,1,.06-3c0-.14,0-.28,0-.42.08-.71.2-1.4.33-2,0-.17.08-.34.11-.5a21.62,21.62,0,0,1,1.72-4.76c.17-.31.33-.6.49-.86a5.92,5.92,0,0,1,1.35-1.73c1.09.54,4,4.57,4.08,8.63A28.46,28.46,0,0,1,31.76,22.34ZM27.88,14.8l1-.47,0,2.44,1.67-1.66.34,1.08-1.73,1.5L30.25,19l-.77,1.16-1-1.54-1,2.51-.8-.39,1.09-2.44-1.76.2.28-1.38H28Z"/><path class="cls-2" d="M9.08,31.94h1.05v.48h0a1.15,1.15,0,0,1,1-.57c1.11,0,1.32.73,1.32,1.68v2H11.4V33.75c0-.41,0-.93-.57-.93s-.66.44-.66.9v1.77H9.08Z"/><path class="cls-2" d="M15.14,31.85a1.87,1.87,0,1,1,0,3.73,1.87,1.87,0,1,1,0-3.73m0,2.76a.9.9,0,1,0-.88-.9.83.83,0,0,0,.88.9"/><path class="cls-2" d="M21.56,33a.78.78,0,0,0-.64-.3c-.18,0-.4.08-.4.29,0,.53,1.85.08,1.85,1.43,0,.91-.88,1.17-1.64,1.17a2,2,0,0,1-1.4-.48l.66-.74a1,1,0,0,0,.78.39c.25,0,.5-.07.5-.26,0-.57-1.85-.09-1.85-1.44,0-.83.75-1.2,1.49-1.2a1.79,1.79,0,0,1,1.31.47Z"/><path class="cls-2" d="M25.64,32.81h-1V34c0,.38,0,.66.52.66a.79.79,0,0,0,.45-.1v.91a2.26,2.26,0,0,1-.77.11c-.73,0-1.29-.3-1.29-1.07V32.81h-.7v-.88h.7V30.88h1.1v1.05h1Z"/><path class="cls-2" d="M28.63,35h0a1.28,1.28,0,0,1-1.12.53,1.14,1.14,0,0,1-1.26-1.1c0-1.23,1.49-1.25,2.4-1.25a.65.65,0,0,0-.7-.64A1.17,1.17,0,0,0,27,33l-.58-.6A2.29,2.29,0,0,1,28,31.85c1.28,0,1.62.65,1.62,1.83v1.81h-1Zm-.27-1.11c-.34,0-1.08,0-1.08.51,0,.26.28.39.52.39.43,0,.83-.23.83-.66v-.23Z"/><path class="cls-2" d="M30.43,31.94h1.1v.57h0a1.09,1.09,0,0,1,1-.66,1.49,1.49,0,0,1,.37,0v1a1.69,1.69,0,0,0-.47-.07c-.83,0-.93.48-.93,1.19v1.48h-1.1Z"/><path class="cls-2" d="M35.77,33.08a.68.68,0,0,0-.54-.27.9.9,0,0,0,0,1.8.7.7,0,0,0,.54-.27l.72.76a1.79,1.79,0,0,1-1.26.47,1.87,1.87,0,1,1,0-3.73,1.78,1.78,0,0,1,1.26.47Z"/><path class="cls-2" d="M38.28,30.88v1.53h0a1,1,0,0,1,1-.57c1.11,0,1.31.73,1.31,1.68v2h-1.1V33.75c0-.41,0-.93-.57-.93s-.66.45-.66.91v1.77h-1.1v-4.6Z"/><path class="cls-2" d="M15.76,39h1v.47h0a1.37,1.37,0,0,1,1.09-.56,1.7,1.7,0,0,1,1.75,1.83A1.73,1.73,0,0,1,18,42.59a1.32,1.32,0,0,1-1.12-.47h0v1.43h-1.1Zm1.89,2.67a.9.9,0,1,0-.88-.9.83.83,0,0,0,.88.9"/><path class="cls-2" d="M20.3,39h1.1v.57h0a1.09,1.09,0,0,1,1-.66,1.5,1.5,0,0,1,.36,0v1a1.69,1.69,0,0,0-.47-.07c-.83,0-.93.48-.93,1.19V42.5H20.3Z"/><path class="cls-2" d="M26.57,41.89a1.93,1.93,0,0,1-1.5.7,1.87,1.87,0,1,1,0-3.73,1.65,1.65,0,0,1,1.67,1.86v.35H24.19a.82.82,0,0,0,.83.69.93.93,0,0,0,.78-.43Zm-.93-1.56a.66.66,0,0,0-.67-.67.73.73,0,0,0-.77.67Z"/><path class="cls-2" d="M29.47,40a.78.78,0,0,0-.64-.3c-.18,0-.4.08-.4.29,0,.53,1.85.08,1.85,1.43,0,.9-.88,1.17-1.64,1.17a2,2,0,0,1-1.4-.48l.66-.74a1,1,0,0,0,.78.39c.25,0,.5-.07.5-.26,0-.57-1.85-.09-1.85-1.44,0-.83.75-1.2,1.49-1.2a1.79,1.79,0,0,1,1.32.47Z"/><path class="cls-2" d="M33.1,40a.78.78,0,0,0-.64-.3c-.18,0-.4.08-.4.29,0,.53,1.85.08,1.85,1.43,0,.9-.88,1.17-1.64,1.17a2,2,0,0,1-1.4-.48l.67-.74a1,1,0,0,0,.77.39c.25,0,.49-.07.49-.26,0-.57-1.85-.09-1.85-1.44,0-.83.75-1.2,1.49-1.2a1.79,1.79,0,0,1,1.31.47Z"/></svg>