<svg width="92" height="92" viewBox="0 0 92 92" fill="none" xmlns="http://www.w3.org/2000/svg">
<rect width="92" height="92" fill="white"/>
<path d="M10.8564 63.6158L7.9611 33.6846L13.5047 33.491L14.9915 51.4241L15.4474 57.0876L15.8342 57.0741L17.8153 39.8805L23.6168 39.6779L26.7925 56.6914L27.1793 56.6779L27.245 51.1683L27.4712 33.0033L32.8 32.8172L31.9996 62.8775L23.8345 63.1626L21.0651 46.6942L20.6354 46.7092L19.0215 63.3307L10.8564 63.6158ZM36.7881 68.6479L49.235 29.5757L54.9506 29.3761L42.5036 68.4483L36.7881 68.6479ZM71.262 62.0227C67.2512 62.1628 64.2384 60.9055 62.2239 58.2508C60.238 55.5952 59.1595 51.8178 58.9885 46.9188C58.8174 42.0198 59.6297 38.1765 61.4255 35.3888C63.25 32.6001 66.1677 31.1357 70.1786 30.9956C74.1894 30.8555 77.1878 32.1133 79.1737 34.769C81.1883 37.4236 82.2811 41.2004 82.4522 46.0995C82.6232 50.9985 81.7965 54.8423 79.9721 57.631C78.1763 60.4187 75.2729 61.8826 71.262 62.0227ZM71.0805 56.8229C72.914 56.7588 74.1511 56.0416 74.7916 54.671C75.4598 53.2709 75.7514 51.3532 75.6664 48.918L75.4848 43.7182C75.4008 41.3116 74.9771 39.4476 74.2139 38.1261C73.4783 36.775 72.1937 36.1314 70.3601 36.1954C68.5266 36.2595 67.2757 36.9916 66.6075 38.3917C65.9669 39.7623 65.6887 41.6508 65.7727 44.0573L65.9558 49.3001C66.0398 51.7067 66.4497 53.5855 67.1853 54.9367C67.9485 56.2582 69.2469 56.8869 71.0805 56.8229Z" fill="#F8CE5D"/>
<path d="M12.5759 60.5463L9.68058 30.6151L15.2242 30.4216L16.711 48.3546L17.1669 54.0181L17.5537 54.0046L19.5348 36.811L25.3363 36.6084L28.512 53.622L28.8987 53.6084L28.9645 48.0988L29.1907 29.9338L34.5194 29.7478L33.719 59.808L25.554 60.0931L22.7846 43.6247L22.3549 43.6398L20.741 60.2612L12.5759 60.5463ZM38.5075 65.5784L50.9545 26.5062L56.67 26.3066L44.2231 65.3788L38.5075 65.5784ZM72.9815 58.9532C68.9706 59.0933 65.9579 57.836 63.9434 55.1814C61.9575 52.5257 60.879 48.7484 60.7079 43.8494C60.5369 38.9504 61.3492 35.107 63.145 32.3193C64.9695 29.5306 67.8872 28.0662 71.898 27.9261C75.9089 27.7861 78.9073 29.0439 80.8932 31.6995C82.9077 34.3542 84.0006 38.131 84.1716 43.03C84.3427 47.929 83.516 51.7729 81.6916 54.5616C79.8958 57.3493 76.9924 58.8132 72.9815 58.9532ZM72.7999 53.7534C74.6335 53.6894 75.8706 52.9721 76.5111 51.6016C77.1793 50.2014 77.4709 48.2837 77.3859 45.8485L77.2043 40.6487C77.1202 38.2422 76.6966 36.3782 75.9333 35.0567C75.1977 33.7055 73.9132 33.0619 72.0796 33.126C70.2461 33.19 68.9952 33.9221 68.327 35.3223C67.6864 36.6928 67.4082 38.5813 67.4922 40.9879L67.6753 46.2307C67.7593 48.6372 68.1691 50.516 68.9047 51.8672C69.668 53.1887 70.9664 53.8174 72.7999 53.7534Z" fill="black"/>
</svg>
